<svg xmlns="http://www.w3.org/2000/svg" viewBox="0 0 960 320" role="img" aria-labelledby="diagram-title diagram-desc">
  <title id="diagram-title">Core skills flow through adapters into agent homes</title>
  <desc id="diagram-desc">Flow diagram: shared core skills publish through per-agent adapters into eight agent install roots.</desc>
  <defs>
    <marker id="arrow" viewBox="0 0 10 10" refX="9" refY="5" markerWidth="8" markerHeight="8" orient="auto-start-reverse">
      <path d="M 0 1.5 L 8 5 L 0 8.5 Z" fill="#5ec8c0"/>
    </marker>
  </defs>
  <style>
    .stroke { fill: none; stroke: #5ec8c0; stroke-width: 1.75; }
    .box { fill: none; stroke: #5ec8c0; stroke-width: 1.75; }
    .label { fill: currentColor; font-family: ui-sans-serif, system-ui, sans-serif; font-size: 15px; font-weight: 600; letter-spacing: -0.02em; }
    .sub { fill: currentColor; opacity: 0.72; font-family: ui-sans-serif, system-ui, sans-serif; font-size: 12px; }
    .flow { stroke: #5ec8c0; stroke-width: 2; fill: none; marker-end: url(#arrow); }
    .node { fill: none; stroke: #5ec8c0; stroke-width: 1.5; opacity: 0.9; }
  </style>

  <!-- Core -->
  <rect class="box" x="40" y="90" width="200" height="140" rx="4"/>
  <text class="label" x="140" y="145" text-anchor="middle">Core skills</text>
  <text class="sub" x="140" y="170" text-anchor="middle">SDD · policy · router</text>
  <text class="sub" x="140" y="190" text-anchor="middle">one shared surface</text>

  <!-- Flow core ’ adapters -->
  <path class="flow" d="M 250 160 H 310"/>

  <!-- Adapters -->
  <rect class="box" x="320" y="90" width="200" height="140" rx="4"/>
  <text class="label" x="420" y="145" text-anchor="middle">Adapters</text>
  <text class="sub" x="420" y="170" text-anchor="middle">per-agent publish</text>
  <text class="sub" x="420" y="190" text-anchor="middle">PowerShell sync</text>

  <!-- Flow adapters ’ agents -->
  <path class="flow" d="M 530 160 H 590"/>

  <!-- Agent homes cluster -->
  <rect class="box" x="600" y="40" width="320" height="240" rx="4"/>
  <text class="label" x="760" y="72" text-anchor="middle">Agent homes</text>

  <rect class="node" x="624" y="96" width="128" height="36" rx="3"/>
  <text class="sub" x="688" y="119" text-anchor="middle">Cursor</text>
  <rect class="node" x="768" y="96" width="128" height="36" rx="3"/>
  <text class="sub" x="832" y="119" text-anchor="middle">Antigravity</text>

  <rect class="node" x="624" y="144" width="128" height="36" rx="3"/>
  <text class="sub" x="688" y="167" text-anchor="middle">Claude Code</text>
  <rect class="node" x="768" y="144" width="128" height="36" rx="3"/>
  <text class="sub" x="832" y="167" text-anchor="middle">Codex</text>

  <rect class="node" x="624" y="192" width="128" height="36" rx="3"/>
  <text class="sub" x="688" y="215" text-anchor="middle">Copilot</text>
  <rect class="node" x="768" y="192" width="128" height="36" rx="3"/>
  <text class="sub" x="832" y="215" text-anchor="middle">OpenCode</text>

  <rect class="node" x="624" y="240" width="128" height="28" rx="3"/>
  <text class="sub" x="688" y="259" text-anchor="middle">Grok</text>
  <rect class="node" x="768" y="240" width="128" height="28" rx="3"/>
  <text class="sub" x="832" y="259" text-anchor="middle">ZCode</text>
</svg>
